ply
format ascii 1.0
element vertex 217
property float x
property float y
property float z
element face 438
property list uchar int vertex_index
end_header
38.057499 4.974900 -27.618601
35.000000 9.192400 -24.192400
40.749901 12.010400 -21.118601
42.642101 9.192400 -27.357901
49.142101 13.000000 -20.857901
44.557499 12.010400 -11.926200
35.000000 13.000000 -15.000000
24.192400 9.192400 -35.000000
28.000000 0.000000 -35.000000
35.000000 0.000000 -28.000000
38.057499 -4.974900 -27.618601
39.949699 0.000000 -30.050301
42.381401 4.974900 -31.942499
48.881401 12.010400 -29.250099
58.073799 12.010400 -25.442499
55.642101 9.192400 -14.357900
47.249901 4.974900 -5.426200
35.000000 9.192400 -5.807600
20.000000 13.000000 0.000000
15.000000 13.000000 -35.000000
21.118601 12.010400 -40.749901
27.618601 4.974900 -38.057499
27.618601 -4.974900 -38.057499
24.192400 -9.192400 -35.000000
35.000000 -9.192400 -24.192400
40.749901 -12.010400 -21.118601
42.642101 -9.192400 -27.357901
42.381401 -4.974900 -31.942499
42.000000 0.000000 -35.000000
45.807598 9.192400 -35.000000
55.000000 13.000000 -35.000000
64.192398 9.192400 -35.000000
64.573799 4.974900 -22.750099
58.334499 0.000000 -11.665500
47.249901 -4.974900 -5.426200
35.000000 0.000000 -2.000000
29.192400 9.192400 0.000000
23.073799 12.010400 9.557500
13.881400 12.010400 5.749900
10.807600 9.192400 0.000000
0.000000 13.000000 -20.000000
0.000000 9.192400 -29.192400
5.807600 9.192400 -35.000000
11.926200 12.010400 -44.557499
20.857901 13.000000 -49.142101
27.357901 9.192400 -42.642101
30.050301 0.000000 -39.949699
27.357901 -9.192400 -42.642101
21.118601 -12.010400 -40.749901
15.000000 -13.000000 -35.000000
25.000000 -13.000000 -25.000000
35.000000 -13.000000 -15.000000
44.557499 -12.010400 -11.926200
49.142101 -13.000000 -20.857901
48.881401 -12.010400 -29.250099
45.807598 -9.192400 -35.000000
42.381401 -4.974900 -38.057499
42.381401 4.974900 -38.057499
48.881401 12.010400 -40.749901
58.073799 12.010400 -44.557499
64.573799 4.974900 -47.249901
68.000000 0.000000 -35.000000
64.573799 -4.974900 -22.750099
55.642101 -9.192400 -14.357900
35.000000 -9.192400 -5.807600
33.000000 0.000000 0.000000
29.573799 4.974900 12.249900
20.642099 9.192400 20.642099
14.142100 13.000000 14.142100
7.642100 9.192400 7.642100
7.381400 4.974900 3.057500
7.000000 0.000000 0.000000
0.000000 9.192400 -10.807600
-5.749900 12.010400 -13.881400
-9.557500 12.010400 -23.073799
-12.249900 4.974900 -29.573799
0.000000 0.000000 -33.000000
2.000000 0.000000 -35.000000
5.426200 4.974900 -47.249901
14.357900 9.192400 -55.642101
25.442499 12.010400 -58.073799
29.250099 12.010400 -48.881401
31.942499 4.974900 -42.381401
31.942499 -4.974900 -42.381401
29.250099 -12.010400 -48.881401
20.857901 -13.000000 -49.142101
11.926200 -12.010400 -44.557499
5.807600 -9.192400 -35.000000
7.500000 -13.000000 -27.500000
16.250000 -13.000000 -26.250000
17.500000 -13.000000 -17.500000
26.250000 -13.000000 -16.250000
27.500000 -13.000000 -7.500000
29.192400 -9.192400 0.000000
29.573799 -4.974900 12.249900
23.334499 0.000000 23.334499
12.249900 4.974900 29.573799
9.557500 12.010400 23.073799
5.749900 12.010400 13.881400
3.057500 4.974900 7.381400
4.949700 0.000000 4.949700
7.381400 -4.974900 3.057500
10.807600 -9.192400 0.000000
0.000000 0.000000 -7.000000
-3.057500 4.974900 -7.381400
-7.642100 9.192400 -7.642100
-14.142100 13.000000 -14.142100
-20.642099 9.192400 -20.642099
-23.334499 0.000000 -23.334499
-12.249900 -4.974900 -29.573799
0.000000 -9.192400 -29.192400
5.426200 -4.974900 -47.249901
11.665500 0.000000 -58.334499
22.750099 4.974900 -64.573799
35.000000 9.192400 -64.192398
35.000000 13.000000 -55.000000
35.000000 9.192400 -45.807598
35.000000 0.000000 -42.000000
35.000000 -9.192400 -45.807598
35.000000 -13.000000 -55.000000
25.442499 -12.010400 -58.073799
14.357900 -9.192400 -55.642101
22.750099 -4.974900 -64.573799
35.000000 0.000000 -68.000000
47.249901 4.974900 -64.573799
44.557499 12.010400 -58.073799
40.749901 12.010400 -48.881401
38.057499 4.974900 -42.381401
38.057499 -4.974900 -42.381401
40.749901 -12.010400 -48.881401
44.557499 -12.010400 -58.073799
35.000000 -9.192400 -64.192398
47.249901 -4.974900 -64.573799
58.334499 0.000000 -58.334499
55.642101 9.192400 -55.642101
49.142101 13.000000 -49.142101
42.642101 9.192400 -42.642101
39.949699 0.000000 -39.949699
42.642101 -9.192400 -42.642101
49.142101 -13.000000 -49.142101
55.642101 -9.192400 -55.642101
64.573799 -4.974900 -47.249901
48.881401 -12.010400 -40.749901
58.073799 -12.010400 -44.557499
64.192398 -9.192400 -35.000000
58.073799 -12.010400 -25.442499
55.000000 -13.000000 -35.000000
0.000000 -13.000000 -20.000000
8.750000 -13.000000 -18.750000
10.000000 -13.000000 -10.000000
18.750000 -13.000000 -8.750000
20.000000 -13.000000 0.000000
23.073799 -12.010400 9.557500
20.642099 -9.192400 20.642099
12.249900 -4.974900 29.573799
0.000000 0.000000 33.000000
0.000000 9.192400 29.192400
0.000000 13.000000 20.000000
0.000000 9.192400 10.807600
0.000000 0.000000 7.000000
3.057500 -4.974900 7.381400
7.642100 -9.192400 7.642100
13.881400 -12.010400 5.749900
0.000000 -9.192400 -10.807600
-3.057500 -4.974900 -7.381400
-4.949700 0.000000 -4.949700
-7.381400 4.974900 -3.057500
-13.881400 12.010400 -5.749900
-23.073799 12.010400 -9.557500
-29.573799 4.974900 -12.249900
-29.573799 -4.974900 -12.249900
-20.642099 -9.192400 -20.642099
-9.557500 -12.010400 -23.073799
-5.749900 -12.010400 -13.881400
-7.642100 -9.192400 -7.642100
-7.381400 -4.974900 -3.057500
-7.000000 0.000000 0.000000
-10.807600 9.192400 0.000000
-20.000000 13.000000 0.000000
-29.192400 9.192400 0.000000
-33.000000 0.000000 0.000000
-29.192400 -9.192400 0.000000
-23.073799 -12.010400 -9.557500
-14.142100 -13.000000 -14.142100
-13.881400 -12.010400 -5.749900
-10.807600 -9.192400 0.000000
-7.381400 -4.974900 3.057500
-7.381400 4.974900 3.057500
-13.881400 12.010400 5.749900
-23.073799 12.010400 9.557500
-29.573799 4.974900 12.249900
-29.573799 -4.974900 12.249900
-23.073799 -12.010400 9.557500
-20.000000 -13.000000 0.000000
-13.881400 -12.010400 5.749900
-7.642100 -9.192400 7.642100
-4.949700 0.000000 4.949700
-7.642100 9.192400 7.642100
-14.142100 13.000000 14.142100
-20.642099 9.192400 20.642099
-23.334499 0.000000 23.334499
-20.642099 -9.192400 20.642099
-14.142100 -13.000000 14.142100
-5.749900 -12.010400 13.881400
-3.057500 -4.974900 7.381400
-3.057500 4.974900 7.381400
-5.749900 12.010400 13.881400
-9.557500 12.010400 23.073799
-12.249900 4.974900 29.573799
-12.249900 -4.974900 29.573799
-9.557500 -12.010400 23.073799
0.000000 -13.000000 20.000000
0.000000 -9.192400 10.807600
0.000000 -9.192400 29.192400
9.557500 -12.010400 23.073799
5.749900 -12.010400 13.881400
14.142100 -13.000000 14.142100
3 0 1 2
3 3 0 2
3 4 3 2
3 5 4 2
3 6 5 2
3 1 6 2
3 7 6 1
3 8 7 1
3 9 8 1
3 0 9 1
3 10 9 0
3 11 10 0
3 3 11 0
3 12 11 3
3 13 12 3
3 4 13 3
3 14 13 4
3 15 14 4
3 5 15 4
3 16 15 5
3 17 16 5
3 6 17 5
3 18 17 6
3 19 18 6
3 7 19 6
3 20 19 7
3 21 20 7
3 8 21 7
3 22 21 8
3 23 22 8
3 9 23 8
3 24 23 9
3 10 24 9
3 25 24 10
3 26 25 10
3 11 26 10
3 27 26 11
3 12 27 11
3 28 27 12
3 29 28 12
3 13 29 12
3 30 29 13
3 14 30 13
3 31 30 14
3 32 31 14
3 15 32 14
3 33 32 15
3 16 33 15
3 34 33 16
3 35 34 16
3 17 35 16
3 36 35 17
3 18 36 17
3 37 36 18
3 38 37 18
3 39 38 18
3 40 39 18
3 19 40 18
3 41 40 19
3 42 41 19
3 43 42 19
3 20 43 19
3 44 43 20
3 45 44 20
3 21 45 20
3 46 45 21
3 22 46 21
3 47 46 22
3 48 47 22
3 23 48 22
3 49 48 23
3 50 49 23
3 24 50 23
3 51 50 24
3 25 51 24
3 52 51 25
3 53 52 25
3 26 53 25
3 54 53 26
3 27 54 26
3 55 54 27
3 28 55 27
3 56 55 28
3 57 56 28
3 29 57 28
3 58 57 29
3 30 58 29
3 59 58 30
3 31 59 30
3 60 59 31
3 61 60 31
3 32 61 31
3 62 61 32
3 33 62 32
3 63 62 33
3 34 63 33
3 52 63 34
3 64 52 34
3 35 64 34
3 65 64 35
3 36 65 35
3 66 65 36
3 37 66 36
3 67 66 37
3 68 67 37
3 38 68 37
3 69 68 38
3 70 69 38
3 39 70 38
3 71 70 39
3 72 71 39
3 40 72 39
3 73 72 40
3 74 73 40
3 41 74 40
3 75 74 41
3 76 75 41
3 42 76 41
3 77 76 42
3 78 77 42
3 43 78 42
3 79 78 43
3 44 79 43
3 80 79 44
3 81 80 44
3 45 81 44
3 82 81 45
3 46 82 45
3 83 82 46
3 47 83 46
3 84 83 47
3 85 84 47
3 48 85 47
3 86 85 48
3 49 86 48
3 87 86 49
3 88 87 49
3 89 88 49
3 50 89 49
3 90 89 50
3 91 90 50
3 51 91 50
3 92 91 51
3 64 92 51
3 52 64 51
3 93 92 64
3 65 93 64
3 94 93 65
3 66 94 65
3 95 94 66
3 67 95 66
3 96 95 67
3 97 96 67
3 68 97 67
3 98 97 68
3 69 98 68
3 99 98 69
3 100 99 69
3 70 100 69
3 101 100 70
3 71 101 70
3 102 101 71
3 103 102 71
3 72 103 71
3 104 103 72
3 73 104 72
3 105 104 73
3 106 105 73
3 74 106 73
3 107 106 74
3 75 107 74
3 108 107 75
3 109 108 75
3 76 109 75
3 110 109 76
3 77 110 76
3 87 110 77
3 111 87 77
3 78 111 77
3 112 111 78
3 79 112 78
3 113 112 79
3 80 113 79
3 114 113 80
3 115 114 80
3 81 115 80
3 116 115 81
3 82 116 81
3 117 116 82
3 83 117 82
3 118 117 83
3 84 118 83
3 119 118 84
3 120 119 84
3 85 120 84
3 121 120 85
3 86 121 85
3 111 121 86
3 87 111 86
3 112 121 111
3 122 121 112
3 113 122 112
3 123 122 113
3 114 123 113
3 124 123 114
3 125 124 114
3 115 125 114
3 126 125 115
3 116 126 115
3 127 126 116
3 117 127 116
3 128 127 117
3 118 128 117
3 129 128 118
3 119 129 118
3 130 129 119
3 131 130 119
3 120 131 119
3 122 131 120
3 121 122 120
3 123 131 122
3 132 131 123
3 124 132 123
3 133 132 124
3 134 133 124
3 125 134 124
3 135 134 125
3 126 135 125
3 136 135 126
3 127 136 126
3 137 136 127
3 128 137 127
3 138 137 128
3 129 138 128
3 139 138 129
3 130 139 129
3 140 139 130
3 132 140 130
3 131 132 130
3 133 140 132
3 141 140 133
3 60 141 133
3 134 60 133
3 59 60 134
3 135 59 134
3 58 59 135
3 136 58 135
3 57 58 136
3 137 57 136
3 56 57 137
3 138 56 137
3 142 56 138
3 139 142 138
3 143 142 139
3 140 143 139
3 141 143 140
3 144 143 141
3 61 144 141
3 60 61 141
3 62 144 61
3 145 144 62
3 63 145 62
3 53 145 63
3 52 53 63
3 54 145 53
3 146 145 54
3 55 146 54
3 142 146 55
3 56 142 55
3 143 146 142
3 144 146 143
3 145 146 144
3 88 110 87
3 147 110 88
3 148 147 88
3 90 148 88
3 89 90 88
3 149 148 90
3 150 149 90
3 92 150 90
3 91 92 90
3 151 150 92
3 93 151 92
3 152 151 93
3 94 152 93
3 153 152 94
3 95 153 94
3 154 153 95
3 96 154 95
3 155 154 96
3 156 155 96
3 97 156 96
3 157 156 97
3 98 157 97
3 158 157 98
3 99 158 98
3 159 158 99
3 160 159 99
3 100 160 99
3 161 160 100
3 101 161 100
3 162 161 101
3 102 162 101
3 151 162 102
3 149 151 102
3 163 149 102
3 103 163 102
3 164 163 103
3 104 164 103
3 165 164 104
3 105 165 104
3 166 165 105
3 167 166 105
3 106 167 105
3 168 167 106
3 107 168 106
3 169 168 107
3 108 169 107
3 170 169 108
3 171 170 108
3 109 171 108
3 172 171 109
3 110 172 109
3 147 172 110
3 173 172 147
3 163 173 147
3 149 163 147
3 148 149 147
3 164 173 163
3 174 173 164
3 165 174 164
3 175 174 165
3 166 175 165
3 176 175 166
3 177 176 166
3 167 177 166
3 178 177 167
3 168 178 167
3 179 178 168
3 169 179 168
3 180 179 169
3 170 180 169
3 181 180 170
3 182 181 170
3 171 182 170
3 183 182 171
3 172 183 171
3 173 183 172
3 174 183 173
3 184 183 174
3 175 184 174
3 185 184 175
3 176 185 175
3 186 185 176
3 187 186 176
3 177 187 176
3 188 187 177
3 178 188 177
3 189 188 178
3 179 189 178
3 190 189 179
3 180 190 179
3 191 190 180
3 181 191 180
3 192 191 181
3 193 192 181
3 182 193 181
3 184 193 182
3 183 184 182
3 185 193 184
3 194 193 185
3 186 194 185
3 195 194 186
3 196 195 186
3 187 196 186
3 197 196 187
3 188 197 187
3 198 197 188
3 189 198 188
3 199 198 189
3 190 199 189
3 200 199 190
3 191 200 190
3 201 200 191
3 192 201 191
3 202 201 192
3 194 202 192
3 193 194 192
3 195 202 194
3 203 202 195
3 204 203 195
3 196 204 195
3 205 204 196
3 197 205 196
3 206 205 197
3 198 206 197
3 207 206 198
3 199 207 198
3 208 207 199
3 200 208 199
3 209 208 200
3 201 209 200
3 210 209 201
3 202 210 201
3 203 210 202
3 211 210 203
3 212 211 203
3 204 212 203
3 159 212 204
3 205 159 204
3 158 159 205
3 206 158 205
3 157 158 206
3 207 157 206
3 156 157 207
3 208 156 207
3 155 156 208
3 209 155 208
3 213 155 209
3 210 213 209
3 211 213 210
3 214 213 211
3 215 214 211
3 212 215 211
3 160 215 212
3 159 160 212
3 161 215 160
3 216 215 161
3 162 216 161
3 152 216 162
3 151 152 162
3 153 216 152
3 214 216 153
3 154 214 153
3 213 214 154
3 155 213 154
3 215 216 214
3 150 151 149
